double_pendulum_states
version=1
nRows=70
nColumns=5
inDegrees=yes

# SIMM Motion File Header:
name double_pendulum_states
datacolumns 5
datarows 70
otherdata 1
range 0.00000000 1.40467879
endheader
time	/jointset/pin1/q1/value	/jointset/pin1/q1/speed	/jointset/pin2/q2/value	/jointset/pin2/q2/speed
      0.00000000	    -44.99999981	      0.00000000	    -59.99999993	      0.00000000
      0.01000000	    -44.97011026	      5.97581046	    -59.99055539	      1.89314688
      0.05858452	    -43.98619718	     34.18331853	    -59.65164188	     12.74164209
      0.10079418	    -42.07213620	     55.88620799	    -58.82500599	     27.60909573
      0.14300384	    -39.33642539	     72.73759779	    -57.19580876	     51.36003138
      0.18521350	    -36.03347394	     82.34526790	    -54.31557179	     87.44701296
      0.22742316	    -32.52297060	     82.14638333	    -49.59374966	    139.15007701
      0.25381724	    -30.42530109	     75.97330484	    -45.38850451	    180.76438116
      0.27530603	    -28.88098307	     67.19376327	    -41.08796811	    220.35414998
      0.29278896	    -27.78698001	     57.60970612	    -36.92615272	    256.27125052
      0.30759083	    -27.00388459	     48.00122088	    -32.89348647	    288.90188218
      0.32239269	    -26.37070074	     37.44689633	    -28.36729180	    322.77741659
      0.33475645	    -25.96357621	     28.43696198	    -24.20141149	    350.98214011
      0.34712021	    -25.66533079	     19.97071926	    -19.69468787	    377.62968084
      0.35948397	    -25.46363567	     12.99723695	    -14.87813279	    400.72134250
      0.37184773	    -25.33304159	      8.66937747	     -9.81069347	    417.77991150
      0.38265881	    -25.24604453	      7.96617287	     -5.24432359	    425.76250666
      0.39346988	    -25.14815901	     10.75430119	     -0.63311634	    425.91807336
      0.40428096	    -25.00006130	     17.25700723	      3.93478358	    417.74437579
      0.41509204	    -24.76230451	     27.27460707	      8.37079380	    401.66005638
      0.42590312	    -24.39961092	     40.25766913	     12.59518731	    378.83375448
      0.43923381	    -23.73928786	     59.25627911	     17.41825435	    343.69927803
      0.45256450	    -22.81089294	     80.26040730	     21.73626595	    303.49282682
      0.46589519	    -21.59569450	    102.11982655	     25.49735758	    260.45676215
      0.47922588	    -20.08820571	    123.99797304	     28.67468662	    216.10924228
      0.49255657	    -18.29218885	    145.33289966	     31.25747418	    171.37276007
      0.50958403	    -15.59451830	    171.24154976	     33.69021066	    114.45900548
      0.52661149	    -12.47131854	    195.26637922	     35.15958895	     58.27775969
      0.55033470	     -7.47495156	    225.27225713	     35.62932369	    -18.32033219
      0.57000746	     -2.82435493	    247.06271377	     34.65871660	    -80.05275861
      0.58968022	      2.22808012	    266.14026411	     32.49313504	   -139.70491742
      0.60935298	      7.62961734	    282.54580588	     29.18107156	   -196.40957085
      0.62691316	     12.70209618	    294.76794074	     25.31458956	   -243.20989014
      0.64447333	     17.96583293	    304.21482135	     20.67229129	   -284.35974536
      0.66203351	     23.36480856	    309.98751834	     15.37781952	   -316.93120143
      0.68116420	     29.31213700	    310.67162561	      9.08171142	   -338.53353217
      0.69677201	     34.13079344	    305.96466297	      3.74757442	   -342.88898311
      0.71237981	     38.83702320	    296.29460367	     -1.55623992	   -334.73149371
      0.72798761	     43.35664932	    282.19626593	     -6.64336523	   -315.50465201
      0.74743812	     48.63679427	    260.06110638	    -12.45429458	   -280.39744124
      0.76442208	     52.87069370	    238.25319970	    -16.91273722	   -244.07148923
      0.78140604	     56.72393483	    215.39757975	    -20.73459297	   -205.87643276
      0.79839000	     60.18575853	    192.25465612	    -23.90741867	   -167.90400856
      0.81537396	     63.25517032	    169.23392716	    -26.44581465	   -131.29539254
      0.83235792	     65.93603526	    146.51749501	    -28.37787027	    -96.54676293
      0.85331325	     68.71689718	    118.98122515	    -29.97500508	    -56.37125202
      0.87426857	     70.92618005	     91.95274088	    -30.75958010	    -18.92789087
      0.89522389	     72.57355543	     65.33258543	    -30.78391710	     16.28210379
      0.92604832	     73.99016639	     26.64720560	    -29.51995681	     65.31697401
      0.95262502	     74.25719195	     -6.55400083	    -27.23765162	    106.36288741
      0.97920173	     73.64068564	    -39.87505624	    -23.86526759	    147.51808104
      0.99967166	     72.56041661	    -65.69041237	    -20.51653988	    179.75372415
      1.02014158	     70.95108520	    -91.53130756	    -16.50345171	    212.36045781
      1.04061150	     68.81530937	   -117.03852172	    -11.82523548	    244.52969382
      1.06108143	     66.16665344	   -141.48726944	     -6.50733286	    274.47142649
      1.08155135	     63.03752002	   -163.77829415	     -0.62262130	    299.37980012
      1.10079238	     59.70863746	   -181.66919450	      5.30481609	    315.33078060
      1.12003340	     56.07043832	   -195.85779728	     11.45198670	    321.99798713
      1.13927443	     52.19615755	   -206.24797087	     17.63273809	    318.87371243
      1.15851545	     48.15485933	   -213.33362887	     23.66615932	    306.93426377
      1.18185972	     43.10745274	   -218.58351305	     30.57039504	    283.10689781
      1.20520398	     37.96940540	   -221.25202785	     36.82602629	    251.78271472
      1.22854825	     32.79267043	   -221.94898967	     42.28292935	    214.91087990
      1.25189252	     27.62184214	   -220.71183801	     46.82435483	    173.44298637
      1.27523678	     22.50598406	   -217.14660748	     50.34727636	    127.66127781
      1.30520154	     16.12090199	   -208.06089906	     53.21387510	     62.42225286
      1.33516629	     10.10378959	   -192.28903795	     54.01021215	    -10.63660266
      1.35833712	      5.84498961	   -174.41352050	     53.05147334	    -73.02210175
      1.38150796	      2.06513368	   -150.85599171	     50.58195747	   -141.15093115
      1.40467879	     -1.09861263	   -121.18702848	     46.45998928	   -215.79917251
